<?xml version="1.0" encoding="UTF-8" standalone="no"?>
<!-- Created with Inkscape (http://www.inkscape.org/) -->

<svg
   xmlns:dc="http://purl.org/dc/elements/1.1/"
   xmlns:cc="http://creativecommons.org/ns#"
   xmlns:rdf="http://www.w3.org/1999/02/22-rdf-syntax-ns#"
   xmlns:svg="http://www.w3.org/2000/svg"
   xmlns="http://www.w3.org/2000/svg"
   xmlns:sodipodi="http://sodipodi.sourceforge.net/DTD/sodipodi-0.dtd"
   xmlns:inkscape="http://www.inkscape.org/namespaces/inkscape"
   id="svg2"
   version="1.1"
   inkscape:version="0.48.4 r9939"
   width="2100"
   height="680"
   sodipodi:docname="envirocar_with_org_with_slogan_flockrand.svg"
   inkscape:export-filename="C:\Users\Schlomm\Desktop\shirts\envirocar_with_org_with_slogan_flockrand.png"
   inkscape:export-xdpi="90"
   inkscape:export-ydpi="90">
  <metadata
     id="metadata8">
    <rdf:RDF>
      <cc:Work
         rdf:about="">
        <dc:format>image/svg+xml</dc:format>
        <dc:type
           rdf:resource="http://purl.org/dc/dcmitype/StillImage" />
        <dc:title></dc:title>
      </cc:Work>
    </rdf:RDF>
  </metadata>
  <defs
     id="defs6">
    <clipPath
       clipPathUnits="userSpaceOnUse"
       id="clipPath18">
      <path
         inkscape:connector-curvature="0"
         d="m 0,0 2833,0 0,798.617 -2833,0 L 0,0 z"
         id="path20" />
    </clipPath>
  </defs>
  <sodipodi:namedview
     pagecolor="#ffffff"
     bordercolor="#666666"
     borderopacity="1"
     objecttolerance="10"
     gridtolerance="10"
     guidetolerance="10"
     inkscape:pageopacity="0"
     inkscape:pageshadow="2"
     inkscape:window-width="1920"
     inkscape:window-height="1137"
     id="namedview4"
     showgrid="false"
     fit-margin-top="0"
     fit-margin-left="0"
     fit-margin-right="0"
     fit-margin-bottom="0"
     inkscape:zoom="0.57468042"
     inkscape:cx="1133.3622"
     inkscape:cy="60.648745"
     inkscape:window-x="-8"
     inkscape:window-y="-8"
     inkscape:window-maximized="1"
     inkscape:current-layer="svg2"
     showguides="true"
     inkscape:guide-bbox="true">
    <sodipodi:guide
       orientation="0,1"
       position="238.39337,153.12859"
       id="guide3039" />
  </sodipodi:namedview>
  <text
     xml:space="preserve"
     style="font-size:41.6542244px;font-style:normal;font-weight:normal;line-height:125%;letter-spacing:0px;word-spacing:0px;fill:#167fc0;fill-opacity:1;stroke:none;font-family:Sans"
     x="1781.2125"
     y="518.33496"
     id="text2987"
     sodipodi:linespacing="125%"
     transform="scale(0.98832052,1.0118175)"><tspan
       sodipodi:role="line"
       id="tspan2989"
       x="1781.2125"
       y="518.33496"
       style="font-size:166.61689758px;font-style:normal;font-variant:normal;font-weight:bold;font-stretch:normal;fill:#167fc0;fill-opacity:1;font-family:Open Sans;-inkscape-font-specification:Open Sans Bold">.org</tspan></text>
  <text
     xml:space="preserve"
     style="font-size:41.6542244px;font-style:normal;font-weight:normal;line-height:125%;letter-spacing:0px;word-spacing:0px;fill:#167fc1;fill-opacity:1;stroke:none;font-family:Sans"
     x="348.97183"
     y="643.4455"
     id="text2984"
     sodipodi:linespacing="125%"
     transform="scale(0.98832052,1.0118175)"><tspan
       sodipodi:role="line"
       id="tspan2986"
       x="348.97183"
       y="643.4455"
       style="font-size:83.30844879px;font-style:normal;font-variant:normal;font-weight:bold;font-stretch:normal;fill:#167fc1;fill-opacity:1;stroke:none;font-family:Open Sans;-inkscape-font-specification:Open Sans Bold">Keep an eye on the impact of your driving!</tspan></text>
  <g
     id="g12"
     transform="matrix(0.61330835,0,0,-0.63050218,29.828428,526.58209)">
    <g
       id="g14">
      <g
         id="g16"
         clip-path="url(#clipPath18)">
        <path
           inkscape:connector-curvature="0"
           d="m 929.734,430.996 c -2.539,5.567 -3.211,11.992 -1.406,18.281 10.844,38.321 31.32,73.379 59.035,101.465 10.274,10.371 27.047,10.469 37.367,0.215 10.34,-10.234 10.56,-26.973 0.26,-37.422 -21.55,-21.699 -37.353,-48.945 -45.818,-78.711 -3.977,-14.023 -18.625,-22.187 -32.649,-18.183 -7.734,2.226 -13.671,7.617 -16.789,14.355"
           style="fill:#0a81c5;fill-opacity:1;fill-rule:nonzero;stroke:none"
           id="path22" />
        <path
           inkscape:connector-curvature="0"
           d="m 802.539,432.461 c -2.129,4.609 -2.93,9.902 -2.101,15.293 14.972,91.68 63.695,173.008 137.218,229.043 11.602,8.848 28.184,6.582 37.051,-5 8.613,-11.309 6.633,-28.242 -4.98,-37.09 C 907.012,586.914 865.391,517.5 852.656,439.258 c -2.39,-14.434 -15.937,-24.199 -30.332,-21.875 -9.023,1.523 -16.211,7.363 -19.785,15.078"
           style="fill:#40bb6a;fill-opacity:1;fill-rule:nonzero;stroke:none"
           id="path24" />
        <path
           inkscape:connector-curvature="0"
           d="m 669.988,431.484 c -1.98,4.317 -2.847,9.239 -2.207,14.317 17.785,142.5 96.465,269.472 215.891,348.437 12.18,8.028 28.555,4.727 36.562,-7.461 7.981,-12.246 4.746,-28.613 -7.48,-36.601 -106.453,-70.43 -176.641,-183.75 -192.539,-310.879 -1.77,-14.512 -15,-24.785 -29.453,-22.93 -9.395,1.113 -17.071,7.11 -20.774,15.117"
           style="fill:#5cc134;fill-opacity:1;fill-rule:nonzero;stroke:none"
           id="path26" />
        <path
           inkscape:connector-curvature="0"
           d="m 197.656,218.555 c 0,18.925 -5.183,35.078 -15.683,48.496 -10.41,13.437 -27.559,20.137 -51.438,20.137 -23.379,0 -39.7733,-6.7 -49.2069,-20.137 C 71.8359,253.633 67.1094,237.48 67.1094,218.555 l 0,-3.711 c 0,-4.981 2.4804,-7.481 7.4804,-7.481 l 115.6052,0 c 4.961,0 7.461,2.5 7.461,7.481 l 0,3.711 z M 249.902,80.5664 c 4.434,-4.4726 6.59,-9.4531 6.309,-14.9219 -0.234,-5.4687 -2.363,-10.7031 -6.309,-15.6836 C 239.91,37.5391 225.281,26.1133 205.891,15.6641 186.504,5.21484 163.34,0 136.492,0 115.625,0 96.875,3.33984 80.207,10.0781 63.4961,16.7773 49.2188,26.1133 37.2773,38.0273 25.3516,49.9609 16.1719,63.9063 9.72656,79.8242 3.22266,95.7227 0,112.637 0,130.547 l 0,88.008 c 0,17.91 2.84375,34.941 8.55469,51.113 5.75001,16.172 14.21871,30.195 25.37891,42.129 11.1445,11.933 24.875,21.387 41.0195,28.379 16.1407,6.953 34.6949,10.449 55.5819,10.449 20.891,0 39.504,-3.496 55.969,-10.449 16.394,-6.992 30.461,-16.446 42.117,-28.379 11.711,-11.934 20.656,-25.957 26.859,-42.129 6.219,-16.172 9.325,-33.203 9.325,-51.113 l 0,-44.746 c 0,-6.954 -1.992,-12.442 -5.957,-16.407 -4.024,-3.964 -9.453,-5.957 -16.438,-5.957 l -167.8202,0 c -5,0 -7.4804,-2.5 -7.4804,-7.48 l 0,-13.418 c 0,-18.926 5.6054,-34.8243 16.8164,-47.7345 C 95.1055,69.8633 112.617,63.418 136.492,63.418 c 18.899,0 33.547,3.3593 44.035,10.039 10.411,6.7383 18.379,13.086 23.868,19.043 5.488,5.4883 10.937,8.086 16.406,7.813 5.437,-0.235 10.429,-2.5786 14.922,-7.0708 l 14.179,-12.6758"
           style="fill:#0a81c5;fill-opacity:1;fill-rule:nonzero;stroke:none"
           id="path28" />
        <path
           inkscape:connector-curvature="0"
           d="m 578.098,7.44141 c -6.965,0 -12.453,1.99218 -16.399,5.99609 -4.004,3.9453 -5.969,9.4336 -5.969,16.4063 l 0,186.4842 c 0,18.887 -5.875,35.43 -17.566,49.61 -11.641,14.179 -29.465,21.25 -53.32,21.25 -23.867,0 -41.653,-7.071 -53.301,-21.25 -11.738,-14.18 -17.559,-30.723 -17.559,-49.61 l 0,-186.4842 c 0,-6.9727 -1.992,-12.461 -5.957,-16.4063 -3.984,-4.00391 -9.433,-5.99609 -16.425,-5.99609 l -22.364,0 c -6.972,0 -12.422,1.99218 -16.425,5.99609 -3.985,3.9453 -5.977,9.4336 -5.977,16.4063 l 0,186.4842 c 0,17.891 3.379,35.059 10.078,51.465 6.68,16.426 16.055,30.723 27.996,42.93 11.906,12.148 26.34,21.855 43.203,29.082 16.946,7.168 35.852,10.82 56.731,10.82 20.898,0 39.804,-3.652 56.719,-10.82 16.882,-7.227 31.328,-16.934 43.242,-29.082 11.914,-12.207 21.289,-26.504 28,-42.93 6.687,-16.406 10.047,-33.574 10.047,-51.465 l 0,-186.4842 c 0,-6.9727 -1.973,-12.461 -5.95,-16.4063 -4.011,-4.00391 -9.492,-5.99609 -16.433,-5.99609 l -22.371,0"
           style="fill:#0a81c5;fill-opacity:1;fill-rule:nonzero;stroke:none"
           id="path30" />
        <path
           inkscape:connector-curvature="0"
           d="m 813.047,7.44141 c -6.934,0 -12.559,1.25 -16.777,3.74999 -4.239,2.4609 -7.586,7.9297 -10.059,16.4258 L 684.023,322.246 c -2.519,6.465 -2.238,11.563 0.762,15.313 2.969,3.73 7.891,5.586 14.903,5.586 l 27.609,0 c 13.387,0 21.851,-5.938 25.32,-17.93 l 70.918,-221.524 c 1.453,-5.4879 3.945,-8.2027 7.422,-8.2027 3.477,0 5.957,2.7148 7.481,8.2027 l 70.839,221.524 c 3.477,11.992 11.934,17.93 25.379,17.93 l 27.571,0 c 6.972,0 11.945,-1.856 14.953,-5.586 2.965,-3.75 3.218,-8.848 0.711,-15.313 L 875.703,27.6172 C 873.215,19.1211 869.863,13.6523 865.637,11.1914 861.395,8.69141 855.82,7.44141 848.848,7.44141 l -35.801,0"
           style="fill:#0a81c5;fill-opacity:1;fill-rule:nonzero;stroke:none"
           id="path32" />
        <path
           inkscape:connector-curvature="0"
           d="m 1139.96,7.44141 c -6.97,0 -12.42,1.99218 -16.4,5.99609 -3.99,3.9453 -5.96,9.4336 -5.96,16.4063 l 0,290.9182 c 0,6.992 1.97,12.422 5.96,16.445 3.98,3.965 9.43,5.938 16.4,5.938 l 22.37,0 c 6.99,0 12.42,-1.973 16.42,-5.938 3.95,-4.023 5.97,-9.453 5.97,-16.445 l 0,-290.9182 c 0,-6.9727 -2.02,-12.461 -5.97,-16.4063 -4,-4.00391 -9.43,-5.99609 -16.42,-5.99609 l -22.37,0 z m 0,387.91059 c -6.97,0 -12.42,1.972 -16.4,5.976 -3.99,3.965 -5.96,9.453 -5.96,16.406 l 0,37.305 c 0,6.934 1.97,12.402 5.96,16.406 3.98,3.965 9.43,5.957 16.4,5.957 l 22.37,0 c 6.99,0 12.42,-1.992 16.42,-5.957 3.95,-4.004 5.97,-9.472 5.97,-16.406 l 0,-37.305 c 0,-6.953 -2.02,-12.441 -5.97,-16.406 -4,-4.004 -9.43,-5.976 -16.42,-5.976 l -22.37,0"
           style="fill:#0a81c5;fill-opacity:1;fill-rule:nonzero;stroke:none"
           id="path34" />
        <path
           inkscape:connector-curvature="0"
           d="m 1139.96,474.902 c -6.32,0 -11.1,-1.699 -14.63,-5.214 -3.52,-3.536 -5.23,-8.321 -5.23,-14.649 l 0,-37.305 c 0,-6.347 1.71,-11.132 5.23,-14.629 3.5,-3.535 8.28,-5.253 14.63,-5.253 l 22.37,0 c 6.34,0 11.13,1.718 14.65,5.253 3.47,3.477 5.24,8.418 5.24,14.629 l 0,37.305 c 0,6.191 -1.77,11.113 -5.25,14.649 -3.54,3.496 -8.33,5.214 -14.64,5.214 l -22.37,0 z m 22.37,-82.05 -22.37,0 c -7.65,0 -13.76,2.265 -18.17,6.718 -4.44,4.395 -6.69,10.528 -6.69,18.164 l 0,37.305 c 0,7.598 2.25,13.711 6.7,18.184 4.45,4.433 10.56,6.679 18.16,6.679 l 22.37,0 c 7.59,0 13.7,-2.246 18.18,-6.679 4.46,-4.532 6.71,-10.645 6.71,-18.184 l 0,-37.305 c 0,-7.597 -2.25,-13.711 -6.7,-18.164 -4.44,-4.453 -10.56,-6.718 -18.19,-6.718 z m -22.37,-52.207 c -6.33,0 -11.11,-1.7 -14.63,-5.215 -3.52,-3.535 -5.23,-8.34 -5.23,-14.668 l 0,-290.9182 c 0,-6.3672 1.71,-11.1524 5.22,-14.629 3.53,-3.5546 8.31,-5.27339 14.64,-5.27339 l 22.37,0 c 6.32,0 11.11,1.71879 14.65,5.27339 3.47,3.4766 5.24,8.3985 5.24,14.629 l 0,290.9182 c 0,6.289 -1.72,11.093 -5.25,14.687 -3.53,3.496 -8.32,5.196 -14.64,5.196 l -22.37,0 z m 22.37,-335.70359 -22.37,0 c -7.62,0 -13.73,2.26562 -18.17,6.73829 -4.44,4.375 -6.69,10.5078 -6.69,18.1641 l 0,290.9182 c 0,7.617 2.25,13.73 6.69,18.203 4.45,4.433 10.56,6.68 18.17,6.68 l 22.37,0 c 7.59,0 13.71,-2.247 18.18,-6.661 4.46,-4.55 6.71,-10.664 6.71,-18.222 l 0,-290.9182 c 0,-7.6172 -2.26,-13.7305 -6.7,-18.1641 -4.47,-4.47267 -10.58,-6.73829 -18.19,-6.73829"
           style="fill:#ffffff;fill-opacity:1;fill-rule:nonzero;stroke:none"
           id="path36" />
        <path
           inkscape:connector-curvature="0"
           d="m 1304.08,7.44141 c -6.98,0 -12.48,1.99218 -16.41,5.99609 -4,3.9453 -5.97,9.4336 -5.97,16.4063 l 0,190.2152 c 0,36.289 10.45,65.898 31.35,88.769 20.86,22.891 49.98,34.317 87.23,34.317 l 26.89,0 c 6.96,0 12.41,-1.973 16.39,-5.938 3.96,-4.023 5.96,-9.453 5.96,-16.445 l 0,-18.633 c 0,-6.973 -2,-12.441 -5.96,-16.426 -3.98,-3.984 -9.43,-5.976 -16.39,-5.976 l -22.38,0 c -18.91,0 -32.97,-5.84 -42.14,-17.52 -9.19,-11.699 -13.82,-26.992 -13.82,-45.879 l 0,-186.4842 c 0,-6.9727 -1.97,-12.461 -5.97,-16.4063 -3.97,-4.00391 -9.46,-5.99609 -16.4,-5.99609 l -22.38,0"
           style="fill:#0a81c5;fill-opacity:1;fill-rule:nonzero;stroke:none"
           id="path38" />
        <path
           inkscape:connector-curvature="0"
           d="m 1662.1,63.418 c 15.44,0 29.74,2.9883 42.92,8.9453 13.18,5.957 24.6,13.9062 34.3,23.8672 9.72,9.9215 17.27,21.7575 22.77,35.4105 5.47,13.711 8.18,28.242 8.18,43.672 0,15.41 -2.71,29.941 -8.18,43.632 -5.5,13.692 -13.05,25.469 -22.77,35.43 -9.7,9.941 -21.12,17.91 -34.3,23.867 -13.18,5.977 -27.48,8.946 -42.92,8.946 -15.38,0 -29.66,-2.969 -42.86,-8.946 -13.18,-5.957 -24.63,-13.926 -34.32,-23.867 -9.65,-9.961 -17.28,-21.738 -22.73,-35.43 -5.49,-13.691 -8.23,-28.222 -8.23,-43.632 0,-15.43 2.74,-29.961 8.23,-43.672 5.45,-13.653 13.08,-25.489 22.73,-35.4105 9.69,-9.961 21.14,-17.9102 34.32,-23.8672 13.2,-5.957 27.48,-8.9453 42.86,-8.9453 z M 1662.1,0 c -24.35,0 -47.1,4.60938 -68.22,13.8086 -21.13,9.1797 -39.65,21.7773 -55.57,37.6562 -15.93,15.918 -28.49,34.4532 -37.68,55.5862 -9.2,21.152 -13.79,43.887 -13.79,68.262 0,24.355 4.59,47.089 13.79,68.222 9.19,21.153 21.75,39.649 37.68,55.586 15.92,15.899 34.44,28.477 55.57,37.656 21.12,9.219 43.87,13.848 68.22,13.848 24.4,0 47.11,-4.629 68.28,-13.848 21.15,-9.179 39.68,-21.757 55.58,-37.656 15.92,-15.937 28.47,-34.433 37.66,-55.586 9.21,-21.133 13.8,-43.867 13.8,-68.222 0,-24.375 -4.59,-47.11 -13.8,-68.262 -9.19,-21.133 -21.74,-39.6682 -37.66,-55.5862 -15.9,-15.8789 -34.43,-28.4765 -55.58,-37.6562 C 1709.21,4.60938 1686.5,0 1662.1,0"
           style="fill:#0a81c5;fill-opacity:1;fill-rule:nonzero;stroke:none"
           id="path40" />
        <path
           inkscape:connector-curvature="0"
           d="m 2221.58,89.5117 c 4.99,-4.9609 7.21,-10.4297 6.73,-16.3867 -0.48,-5.9766 -2.73,-10.957 -6.73,-14.9219 C 2205.7,42.2656 2187.05,28.5742 2165.66,17.1484 2144.26,5.72266 2116.68,0 2082.83,0 c -24.35,0 -46.97,4.35547 -67.87,13.0664 -20.86,8.6914 -38.91,20.8789 -54.07,36.543 -15.17,15.664 -27.12,34.5508 -35.82,56.6796 -8.66,22.149 -13.07,46.387 -13.07,72.734 l 0,164.122 c 0,25.859 4.41,49.863 13.07,72.011 8.7,22.09 20.65,40.977 35.82,56.66 15.16,15.664 33.21,27.969 54.07,36.934 20.9,8.965 43.52,13.438 67.87,13.438 16.45,0 31.36,-1.641 44.81,-4.864 13.4,-3.222 25.56,-7.344 36.5,-12.304 10.97,-4.981 20.54,-10.567 28.73,-16.778 8.22,-6.23 15.04,-12.07 20.53,-17.539 10.44,-10.449 10.44,-20.879 0,-31.328 l -17.15,-17.168 c -5,-4.961 -9.7,-7.578 -14.2,-7.812 -4.46,-0.254 -9.7,2.343 -15.66,7.812 -6.51,5.977 -16.27,12.93 -29.45,20.879 -13.16,7.969 -31.22,11.953 -54.11,11.953 -15.89,0 -29.94,-2.891 -42.11,-8.594 -12.23,-5.722 -22.65,-13.691 -31.36,-23.847 -8.68,-10.215 -15.26,-22.149 -19.78,-35.801 -4.43,-13.692 -6.71,-28.242 -6.71,-43.652 l 0,-164.122 c 0,-33.3 8.87,-60.293 26.49,-80.9371 17.65,-20.6445 42.18,-30.9375 73.47,-30.9375 21.94,0 40.4,4.0821 55.58,12.3047 15.18,8.1836 27.47,16.5235 36.94,24.9809 4.45,3.964 9.57,6.211 15.31,6.718 5.67,0.469 11.05,-1.757 16,-6.718 l 14.92,-14.9223"
           style="fill:#0a81c5;fill-opacity:1;fill-rule:nonzero;stroke:none"
           id="path42" />
        <path
           inkscape:connector-curvature="0"
           d="m 2508.81,272.285 c 0,4.961 -2.48,7.442 -7.48,7.442 l -55.92,0 c -24.92,0 -44.18,-7.715 -57.83,-23.125 -13.71,-15.391 -20.51,-33.809 -20.51,-55.176 l 0,-73.867 c 0,-18.926 5.59,-34.3168 16.8,-46.2504 11.16,-11.9141 26.7,-17.8906 46.61,-17.8906 13.39,0 24.97,2.3633 34.7,7.0703 9.67,4.7265 17.76,11.0742 24.2,19.0234 6.47,7.9492 11.3,16.7773 14.57,26.4843 3.2,9.707 4.86,19.766 4.86,30.195 l 0,126.094 z M 2531.15,7.44141 c -6.95,0 -12.42,2.24609 -16.38,6.75779 -4.02,4.4531 -5.96,9.3946 -5.96,14.8828 0,2.9883 -1.14,4.8633 -3.39,5.6055 -2.22,0.7617 -4.35,-0.1367 -6.31,-2.6172 -6.98,-9.4531 -17.29,-17.1484 -30.98,-23.12499 C 2454.46,3.00781 2437.91,0 2418.55,0 c -17.41,0 -33.35,3.26172 -47.77,9.6875 -14.41,6.4648 -26.83,15.6641 -37.29,27.5977 -10.43,11.914 -18.67,26.25 -24.62,42.9101 -5.98,16.6602 -8.96,34.9217 -8.96,54.8047 l 0,66.426 c 0,19.375 3.47,37.773 10.48,55.176 6.93,17.421 16.78,32.461 29.41,45.156 12.7,12.656 27.76,22.734 45.15,30.195 17.43,7.461 36.57,11.192 57.45,11.192 l 111.17,0 c 6.93,0 12.41,-1.973 16.36,-5.938 4.03,-4.023 5.99,-9.453 5.99,-16.445 l 0,-290.9182 c 0,-6.9727 -1.96,-12.461 -5.99,-16.4063 -3.95,-4.00391 -9.43,-5.99609 -16.36,-5.99609 l -22.42,0"
           style="fill:#0a81c5;fill-opacity:1;fill-rule:nonzero;stroke:none"
           id="path44" />
        <path
           inkscape:connector-curvature="0"
           d="m 2687.79,7.44141 c -6.91,0 -12.4,1.99218 -16.36,5.99609 -4.03,3.9453 -6,9.4336 -6,16.4063 l 0,190.2152 c 0,36.289 10.45,65.898 31.33,88.769 20.89,22.891 50,34.317 87.28,34.317 l 26.86,0 c 6.97,0 12.4,-1.973 16.44,-5.938 3.95,-4.023 5.96,-9.453 5.96,-16.445 l 0,-18.633 c 0,-6.973 -2.01,-12.441 -5.96,-16.426 -4.04,-3.984 -9.47,-5.976 -16.44,-5.976 l -22.36,0 c -18.92,0 -32.95,-5.84 -42.17,-17.52 -9.19,-11.699 -13.81,-26.992 -13.81,-45.879 l 0,-186.4842 c 0,-6.9727 -1.97,-12.461 -5.96,-16.4063 -3.96,-4.00391 -9.43,-5.99609 -16.39,-5.99609 l -22.42,0"
           style="fill:#0a81c5;fill-opacity:1;fill-rule:nonzero;stroke:none"
           id="path46" />
        <path
           inkscape:connector-curvature="0"
           d="m 1104.43,7.44141 c -6.96,0 -12.44,1.99218 -16.38,5.99609 -4,3.9453 -5.96,9.4336 -5.96,16.4063 l 0,290.9182 c 0,6.992 1.96,12.422 5.96,16.445 3.94,3.965 9.42,5.938 16.38,5.938 l 22.39,0 c 6.97,0 12.4,-1.973 16.42,-5.938 3.95,-4.023 5.94,-9.453 5.94,-16.445 l 0,-290.9182 c 0,-6.9727 -1.99,-12.461 -5.94,-16.4063 -4.02,-4.00391 -9.45,-5.99609 -16.42,-5.99609 l -22.39,0 z m 0,387.91059 c -6.96,0 -12.44,1.972 -16.38,5.976 -4,3.965 -5.96,9.453 -5.96,16.406 l 0,37.305 c 0,6.934 1.96,12.402 5.96,16.406 3.94,3.965 9.42,5.957 16.38,5.957 l 22.39,0 c 6.97,0 12.4,-1.992 16.42,-5.957 3.95,-4.004 5.94,-9.472 5.94,-16.406 l 0,-37.305 c 0,-6.953 -1.99,-12.441 -5.94,-16.406 -4.02,-4.004 -9.45,-5.976 -16.42,-5.976 l -22.39,0"
           style="fill:#0fad79;fill-opacity:1;fill-rule:nonzero;stroke:none"
           id="path48" />
        <path
           inkscape:connector-curvature="0"
           d="m 1104.43,474.902 c -6.25,0 -11.16,-1.757 -14.61,-5.214 -3.52,-3.536 -5.23,-8.321 -5.23,-14.649 l 0,-37.305 c 0,-6.367 1.71,-11.152 5.22,-14.629 3.48,-3.535 8.26,-5.253 14.62,-5.253 l 22.39,0 c 6.32,0 11.12,1.718 14.65,5.253 3.46,3.458 5.21,8.399 5.21,14.629 l 0,37.305 c 0,6.289 -1.71,11.094 -5.22,14.649 -3.55,3.496 -8.35,5.214 -14.64,5.214 l -22.39,0 z m 22.39,-82.05 -22.39,0 c -7.67,0 -13.78,2.265 -18.17,6.718 -4.42,4.395 -6.67,10.508 -6.67,18.164 l 0,37.305 c 0,7.617 2.25,13.731 6.69,18.184 4.41,4.433 10.52,6.679 18.15,6.679 l 22.39,0 c 7.56,0 13.68,-2.246 18.18,-6.679 4.44,-4.512 6.68,-10.625 6.68,-18.184 l 0,-37.305 c 0,-7.617 -2.24,-13.73 -6.67,-18.164 -4.46,-4.453 -10.59,-6.718 -18.19,-6.718 z m -22.39,-52.207 c -6.25,0 -11.17,-1.758 -14.61,-5.215 -3.52,-3.535 -5.23,-8.321 -5.23,-14.668 l 0,-290.9182 c 0,-6.3672 1.7,-11.1524 5.21,-14.629 3.51,-3.5546 8.29,-5.27339 14.63,-5.27339 l 22.39,0 c 6.3,0 11.1,1.71879 14.66,5.27339 3.45,3.4571 5.2,8.379 5.2,14.629 l 0,290.9182 c 0,6.308 -1.71,11.113 -5.22,14.687 -3.54,3.496 -8.34,5.196 -14.64,5.196 l -22.39,0 z m 22.39,-335.70359 -22.39,0 c -7.64,0 -13.76,2.26562 -18.17,6.73829 -4.41,4.375 -6.67,10.4883 -6.67,18.1641 l 0,290.9182 c 0,7.617 2.25,13.75 6.68,18.203 4.42,4.433 10.53,6.68 18.16,6.68 l 22.39,0 c 7.57,0 13.69,-2.247 18.18,-6.661 4.44,-4.531 6.68,-10.644 6.68,-18.222 l 0,-290.9182 c 0,-7.6368 -2.25,-13.75 -6.67,-18.1641 -4.49,-4.47267 -10.61,-6.73829 -18.19,-6.73829"
           style="fill:#ffffff;fill-opacity:1;fill-rule:nonzero;stroke:none"
           id="path50" />
        <path
           inkscape:connector-curvature="0"
           d="m 1068.91,7.44141 c -6.96,0 -12.41,1.99218 -16.39,5.99609 -4,3.9453 -5.97,9.4336 -5.97,16.4063 l 0,290.9182 c 0,6.992 1.97,12.422 5.97,16.445 3.98,3.965 9.43,5.938 16.39,5.938 l 22.38,0 c 6.97,0 12.42,-1.973 16.41,-5.938 3.95,-4.023 5.96,-9.453 5.96,-16.445 l 0,-290.9182 c 0,-6.9727 -2.01,-12.461 -5.96,-16.4063 -3.99,-4.00391 -9.44,-5.99609 -16.41,-5.99609 l -22.38,0 z m 0,387.91059 c -6.96,0 -12.41,1.972 -16.39,5.976 -4,3.965 -5.97,9.453 -5.97,16.406 l 0,37.305 c 0,6.934 1.97,12.402 5.97,16.406 3.98,3.965 9.43,5.957 16.39,5.957 l 22.38,0 c 6.97,0 12.42,-1.992 16.41,-5.957 3.95,-4.004 5.96,-9.472 5.96,-16.406 l 0,-37.305 c 0,-6.953 -2.01,-12.441 -5.96,-16.406 -3.99,-4.004 -9.44,-5.976 -16.41,-5.976 l -22.38,0"
           style="fill:#5cc134;fill-opacity:1;fill-rule:nonzero;stroke:none"
           id="path52" />
        <path
           inkscape:connector-curvature="0"
           d="m 1068.91,474.902 c -6.31,0 -11.09,-1.699 -14.63,-5.234 -3.51,-3.516 -5.23,-8.301 -5.23,-14.629 l 0,-37.305 c 0,-6.367 1.71,-11.152 5.23,-14.629 3.51,-3.535 8.29,-5.253 14.63,-5.253 l 22.38,0 c 6.35,0 11.13,1.718 14.63,5.234 3.48,3.496 5.24,8.418 5.24,14.648 l 0,37.305 c 0,6.191 -1.76,11.133 -5.24,14.649 -3.52,3.515 -8.31,5.214 -14.63,5.214 l -22.38,0 z m 22.38,-82.05 -22.38,0 c -7.63,0 -13.74,2.265 -18.16,6.718 -4.44,4.395 -6.7,10.508 -6.7,18.164 l 0,37.305 c 0,7.617 2.26,13.731 6.7,18.184 4.46,4.433 10.57,6.679 18.16,6.679 l 22.38,0 c 7.6,0 13.71,-2.246 18.17,-6.679 4.45,-4.512 6.7,-10.625 6.7,-18.184 l 0,-37.305 c 0,-7.597 -2.25,-13.711 -6.7,-18.164 -4.42,-4.453 -10.53,-6.718 -18.17,-6.718 z m -22.38,-52.207 c -6.31,0 -11.1,-1.7 -14.63,-5.215 -3.51,-3.535 -5.23,-8.321 -5.23,-14.668 l 0,-290.9182 c 0,-6.3672 1.71,-11.1524 5.22,-14.629 3.54,-3.5546 8.32,-5.27339 14.64,-5.27339 l 22.38,0 c 6.32,0 11.11,1.71879 14.63,5.27339 3.48,3.4571 5.24,8.379 5.24,14.629 l 0,290.9182 c 0,6.289 -1.72,11.093 -5.25,14.687 -3.51,3.496 -8.3,5.196 -14.62,5.196 l -22.38,0 z m 22.38,-335.70359 -22.38,0 c -7.61,0 -13.71,2.26562 -18.16,6.73829 -4.44,4.375 -6.7,10.4883 -6.7,18.1641 l 0,290.9182 c 0,7.617 2.25,13.75 6.7,18.203 4.46,4.433 10.56,6.68 18.16,6.68 l 22.38,0 c 7.61,0 13.72,-2.247 18.17,-6.68 4.45,-4.512 6.7,-10.625 6.7,-18.203 l 0,-290.9182 c 0,-7.6172 -2.25,-13.7305 -6.7,-18.1641 -4.44,-4.47267 -10.55,-6.73829 -18.17,-6.73829"
           style="fill:#ffffff;fill-opacity:1;fill-rule:nonzero;stroke:none"
           id="path54" />
      </g>
    </g>
  </g>
</svg>
