<?xml version="1.0" encoding="UTF-8" standalone="no"?>
<!-- Created with Inkscape (http://www.inkscape.org/) -->

<svg
   xmlns:dc="http://purl.org/dc/elements/1.1/"
   xmlns:cc="http://creativecommons.org/ns#"
   xmlns:rdf="http://www.w3.org/1999/02/22-rdf-syntax-ns#"
   xmlns:svg="http://www.w3.org/2000/svg"
   xmlns="http://www.w3.org/2000/svg"
   xmlns:sodipodi="http://sodipodi.sourceforge.net/DTD/sodipodi-0.dtd"
   xmlns:inkscape="http://www.inkscape.org/namespaces/inkscape"
   id="svg2"
   version="1.1"
   inkscape:version="0.48.4 r9939"
   width="2100"
   height="680"
   sodipodi:docname="envirocar_with_org_with_slogan.svg"
   inkscape:export-filename="C:\Users\Schlomm\Desktop\shirts\envirocar_with_org_with_slogan.png"
   inkscape:export-xdpi="90"
   inkscape:export-ydpi="90">
  <metadata
     id="metadata8">
    <rdf:RDF>
      <cc:Work
         rdf:about="">
        <dc:format>image/svg+xml</dc:format>
        <dc:type
           rdf:resource="http://purl.org/dc/dcmitype/StillImage" />
        <dc:title></dc:title>
      </cc:Work>
    </rdf:RDF>
  </metadata>
  <defs
     id="defs6" />
  <sodipodi:namedview
     pagecolor="#ffffff"
     bordercolor="#666666"
     borderopacity="1"
     objecttolerance="10"
     gridtolerance="10"
     guidetolerance="10"
     inkscape:pageopacity="0"
     inkscape:pageshadow="2"
     inkscape:window-width="1366"
     inkscape:window-height="715"
     id="namedview4"
     showgrid="false"
     fit-margin-top="0"
     fit-margin-left="0"
     fit-margin-right="0"
     fit-margin-bottom="0"
     inkscape:zoom="0.38254353"
     inkscape:cx="1137.7818"
     inkscape:cy="165.96939"
     inkscape:window-x="-8"
     inkscape:window-y="-8"
     inkscape:window-maximized="1"
     inkscape:current-layer="svg2"
     showguides="true"
     inkscape:guide-bbox="true" />
  <text
     xml:space="preserve"
     style="font-size:41.6542244px;font-style:normal;font-weight:normal;line-height:125%;letter-spacing:0px;word-spacing:0px;fill:#167fc0;fill-opacity:1;stroke:none;font-family:Sans"
     x="1793.3546"
     y="516.35834"
     id="text2987"
     sodipodi:linespacing="125%"
     transform="scale(0.98832052,1.0118175)"><tspan
       sodipodi:role="line"
       id="tspan2989"
       x="1793.3546"
       y="516.35834"
       style="font-size:166.61689758px;font-style:normal;font-variant:normal;font-weight:bold;font-stretch:normal;fill:#167fc0;fill-opacity:1;font-family:Open Sans;-inkscape-font-specification:Open Sans Bold">.org</tspan></text>
  <text
     xml:space="preserve"
     style="font-size:41.6542244px;font-style:normal;font-weight:normal;line-height:125%;letter-spacing:0px;word-spacing:0px;fill:#167fc1;fill-opacity:1;stroke:none;font-family:Sans"
     x="361.11356"
     y="643.4455"
     id="text2984"
     sodipodi:linespacing="125%"
     transform="scale(0.98832052,1.0118175)"><tspan
       sodipodi:role="line"
       id="tspan2986"
       x="361.11356"
       y="643.4455"
       style="font-size:83.30844879px;font-style:normal;font-variant:normal;font-weight:bold;font-stretch:normal;fill:#167fc1;fill-opacity:1;stroke:none;font-family:Open Sans;-inkscape-font-specification:Open Sans Bold">Keep an eye on the impact of your driving!</tspan></text>
  <path
     inkscape:connector-curvature="0"
     d="m 590.82226,253.40032 c -1.55928,-3.52948 -1.96939,-7.60719 -0.86295,-11.59884 6.66005,-24.33425 19.23682,-46.57715 36.26501,-64.40553 6.30975,-6.58179 16.61381,-6.64182 22.95346,-0.14161 6.35247,6.50061 6.49344,17.12171 0.16234,23.75163 -13.2432,13.78023 -22.94492,31.07056 -28.14821,49.96316 -2.44786,8.9058 -11.44469,14.07865 -20.05704,11.5441 -4.75474,-1.41737 -8.39448,-4.8365 -10.31261,-9.11284"
     style="fill:#0a81c5;fill-opacity:1;fill-rule:nonzero;stroke:none"
     id="path14" />
  <path
     inkscape:connector-curvature="0"
     d="m 512.68737,252.46938 c -1.3115,-2.92607 -1.80705,-6.28827 -1.29014,-9.7074 9.19334,-58.19672 39.12725,-109.80678 84.29511,-145.374379 7.12569,-5.62129 17.31441,-4.18672 22.75694,3.167519 5.29301,7.17772 4.07122,17.92861 -3.06302,23.54106 -38.5249,30.33253 -64.09282,74.40073 -71.91485,124.05889 -1.4653,9.16448 -9.78716,15.35432 -18.63447,13.88046 -5.54078,-0.95697 -9.95803,-4.66432 -12.14957,-9.56615"
     style="fill:#40bb6a;fill-opacity:1;fill-rule:nonzero;stroke:none"
     id="path16" />
  <path
     inkscape:connector-curvature="0"
     d="m 431.26219,253.08646 c -1.2235,-2.74156 -1.75237,-5.85876 -1.35508,-9.07796 10.92522,-90.45377 59.25436,-171.053139 132.62169,-221.170369 7.476,-5.09382 17.54083,-3.00155 22.4579,4.73629 4.90426,7.76433 2.91778,18.15502 -4.59667,23.2356 -65.39578,44.69278 -108.50881,116.633559 -118.2746,197.319459 -1.08509,9.20729 -9.2147,15.72817 -18.09578,14.56109 -5.76549,-0.71197 -10.48305,-4.51734 -12.75746,-9.60411"
     style="fill:#5cc134;fill-opacity:1;fill-rule:nonzero;stroke:none"
     id="path18" />
  <path
     inkscape:connector-curvature="0"
     d="m 141.1045,388.24142 c 0,-12.00935 -3.18691,-22.26893 -9.63678,-30.77789 -6.39132,-8.5262 -16.92607,-12.79064 -31.594422,-12.79064 -14.3629,0 -24.43884,4.26444 -30.23465,12.79064 -5.82188,8.50896 -8.73074,18.76854 -8.73074,30.77789 l 0,2.35357 c 0,3.1587 1.52172,4.74511 4.59757,4.74511 l 71.013462,0 c 3.04552,0 4.58556,-1.58641 4.58556,-4.74511 l 0,-2.35357 z m 32.09342,87.58947 c 2.72851,2.83294 4.05198,5.99341 3.87682,9.47307 -0.14695,3.4692 -1.45675,6.78832 -3.87682,9.95752 -6.1376,7.87972 -15.12373,15.13192 -27.03834,21.75643 -11.90993,6.63489 -26.1361,9.94544 -42.62859,9.94544 -12.822422,0 -24.341852,-2.11907 -34.579722,-6.40038 -10.25779,-4.24679 -19.03542,-10.16957 -26.37123,-17.73555 -7.32084,-7.56594 -12.96453,-16.41995 -16.92447,-26.52906 -3.99333,-10.09364 -5.97413,-20.82906 -5.97413,-32.19173 l 0,-55.86521 c 0,-11.36314 1.74885,-22.17402 5.25657,-32.442 3.53442,-10.25915 8.73091,-19.16496 15.58949,-26.74259 6.84685,-7.56965 15.27739,-13.57853 25.198,-18.00978 9.91743,-4.41406 21.31513,-6.62992 34.1478,-6.62992 12.827532,0 24.263672,2.21586 34.376352,6.62992 10.07594,4.43125 18.71478,10.44013 25.87892,18.00978 7.19234,7.57763 12.68573,16.48344 16.49379,26.74259 3.82128,10.26798 5.73388,21.07886 5.73388,32.442 l 0,28.39782 c 0,4.4176 -1.2231,7.90251 -3.66282,10.41807 -2.46966,2.52265 -5.80394,3.78461 -10.09603,3.78461 l -103.091912,0 c -3.07585,0 -4.59757,1.57758 -4.59757,4.74688 l 0,8.51783 c 0,12.0093 3.44583,22.09809 10.32974,30.29852 6.87193,8.21414 17.63013,12.30233 32.293342,12.30233 11.6113,0 20.60598,-2.12768 27.05243,-6.36584 6.39136,-4.28122 11.28406,-8.30242 14.65809,-12.08528 3.37276,-3.48311 6.72156,-5.13838 10.08448,-4.96051 3.33729,0.15007 6.39946,1.64114 9.16132,4.48468 l 8.71061,8.05036"
     style="fill:#0a81c5;fill-opacity:1;fill-rule:nonzero;stroke:none"
     id="path20" />
  <path
     inkscape:connector-curvature="0"
     d="m 374.80812,522.24066 c -4.2801,0 -7.64603,-1.26214 -10.07594,-3.80538 -2.45128,-2.50707 -3.66107,-5.9814 -3.66107,-10.41273 l 0,-118.36733 c 0,-11.98859 -3.60943,-22.49271 -10.78851,-31.48986 -7.1556,-9.00426 -18.10262,-13.49247 -32.75428,-13.49247 -14.66835,0 -25.59015,4.48821 -32.74404,13.49247 -7.21415,8.99715 -10.78509,19.50127 -10.78509,31.48986 l 0,118.36733 c 0,4.43133 -1.22993,7.90566 -3.66668,10.41273 -2.44444,2.54324 -5.79539,3.80538 -10.08916,3.80538 l -13.73192,0 c -4.28868,0 -7.63451,-1.26214 -10.09262,-3.80538 -2.44998,-2.50707 -3.67648,-5.9814 -3.67648,-10.41273 l 0,-118.36733 c 0,-11.35074 2.08261,-22.25653 6.19611,-32.66577 4.10539,-10.42336 9.85721,-19.50131 17.19651,-27.24315 7.31752,-7.71577 16.18363,-13.87999 26.54152,-18.46136 10.40786,-4.55396 22.01916,-6.86781 34.85185,-6.86781 12.83777,0 24.45036,2.31385 34.84028,6.86781 10.36941,4.58137 19.24064,10.74559 26.56159,18.46136 7.3205,7.74184 13.08302,16.81979 17.19948,27.24315 4.11011,10.40924 6.17434,21.31503 6.17434,32.66577 l 0,118.36733 c 0,4.43133 -1.21284,7.90566 -3.65256,10.41273 -2.46665,2.54324 -5.83429,3.80538 -10.10113,3.80538 l -13.7422,0"
     style="fill:#0a81c5;fill-opacity:1;fill-rule:nonzero;stroke:none"
     id="path22" />
  <path
     inkscape:connector-curvature="0"
     d="m 519.14236,522.24066 c -4.25918,0 -7.7195,-0.78969 -10.30833,-2.37942 -2.59738,-1.56735 -4.66076,-5.03655 -6.17732,-10.41789 L 439.88097,322.42691 c -1.54349,-4.10373 -1.37347,-7.33659 0.46736,-9.71622 1.82414,-2.36724 4.84786,-3.54845 9.15188,-3.54845 l 16.96412,0 c 8.2236,0 13.4269,3.77268 15.55862,11.3768 l 43.56159,140.61158 c 0.89285,3.48138 2.42222,5.21257 4.55822,5.21257 2.136,0 3.65684,-1.73119 4.59668,-5.21257 l 43.51459,-140.61158 c 2.136,-7.60412 7.33503,-11.3768 15.5928,-11.3768 l 16.93848,0 c 4.28482,0 7.33503,1.18121 9.18481,3.54845 1.81987,2.37963 1.97366,5.61249 0.43574,9.71622 l -62.77277,187.01644 c -1.53365,5.38134 -3.59276,8.85054 -6.18586,10.41789 -2.60592,1.58973 -6.02779,2.37942 -10.31261,2.37942 l -21.99226,0"
     style="fill:#0a81c5;fill-opacity:1;fill-rule:nonzero;stroke:none"
     id="path24" />
  <path
     inkscape:connector-curvature="0"
     d="m 719.96483,522.24066 c -4.28055,0 -7.6298,-1.26214 -10.07338,-3.80538 -2.45213,-2.50707 -3.66538,-5.9814 -3.66538,-10.41273 l 0,-184.65586 c 0,-4.4313 1.21325,-7.88839 3.66538,-10.43177 2.44358,-2.51732 5.79283,-3.77268 10.07338,-3.77268 l 13.74729,0 c 4.28482,0 7.62552,1.25536 10.08192,3.77268 2.41796,2.54338 3.66538,6.00047 3.66538,10.43177 l 0,184.65586 c 0,4.43133 -1.24742,7.90566 -3.66538,10.41273 -2.4564,2.54324 -5.7971,3.80538 -10.08192,3.80538 l -13.74729,0 z m 0,-246.22182 c -4.28055,0 -7.6298,-1.24124 -10.07338,-3.79302 -2.45213,-2.51778 -3.66538,-6.00047 -3.66538,-10.411 l 0,-23.67391 c 0,-4.40921 1.21325,-7.87997 3.66538,-10.41805 2.44358,-2.51736 5.79283,-3.78462 10.07338,-3.78462 l 13.74729,0 c 4.28482,0 7.62552,1.26726 10.08192,3.78462 2.41796,2.53808 3.66538,6.00884 3.66538,10.41805 l 0,23.67391 c 0,4.41053 -1.24742,7.89322 -3.66538,10.411 -2.4564,2.55178 -5.7971,3.79302 -10.08192,3.79302 l -13.74729,0"
     style="fill:#0a81c5;fill-opacity:1;fill-rule:nonzero;stroke:none"
     id="path26" />
  <path
     inkscape:connector-curvature="0"
     d="m 820.78403,522.24066 c -4.28481,0 -7.66396,-1.26214 -10.08192,-3.80538 -2.4564,-2.50707 -3.6611,-5.9814 -3.6611,-10.41273 l 0,-120.73503 c 0,-23.03387 6.41227,-41.82494 19.24963,-56.34278 12.816,-14.52667 30.70287,-21.7825 53.59225,-21.7825 l 16.51555,0 c 4.28054,0 7.62552,1.25536 10.07338,3.77268 2.42649,2.54338 3.65683,6.00047 3.65683,10.43177 l 0,11.82833 c 0,4.43129 -1.23034,7.90029 -3.65683,10.42294 -2.44786,2.53808 -5.79284,3.79343 -10.07338,3.79343 l -13.75157,0 c -11.6113,0 -20.24501,3.70693 -25.88405,11.12121 -5.64758,7.42621 -8.48419,17.13403 -8.48419,29.12262 l 0,118.36733 c 0,4.43133 -1.21752,7.90566 -3.66965,10.41273 -2.44358,2.54324 -5.81419,3.80538 -10.07338,3.80538 l -13.75157,0"
     style="fill:#0a81c5;fill-opacity:1;fill-rule:nonzero;stroke:none"
     id="path28" />
  <path
     inkscape:connector-curvature="0"
     d="m 1040.7194,486.70748 c 9.4839,0 18.2671,-1.88977 26.3668,-5.67637 8.0997,-3.77932 15.1101,-8.82811 21.0695,-15.14552 5.9765,-6.30062 10.6117,-13.81293 13.9865,-22.48256 3.3621,-8.69351 5.0325,-17.92331 5.0325,-27.71722 0,-9.77096 -1.6704,-19.00429 -5.0325,-27.68586 -3.3748,-8.6904 -8.01,-16.17001 -13.9865,-22.4927 -5.9594,-6.31606 -12.9698,-11.3631 -21.0695,-15.14771 -8.0997,-3.79345 -16.8829,-5.68665 -26.3668,-5.68665 -9.4539,0 -18.2201,1.8932 -26.3326,5.68665 -8.0912,3.78461 -15.13141,8.83165 -21.07801,15.14771 -5.9296,6.32269 -10.6202,13.8023 -13.9652,22.4927 -3.3749,8.68157 -5.058,17.9149 -5.058,27.68586 0,9.79391 1.6831,19.02371 5.058,27.71722 3.345,8.66963 8.0356,16.18194 13.9652,22.48256 5.9466,6.31741 12.98681,11.3662 21.07801,15.14552 8.1125,3.7866 16.8787,5.67637 26.3326,5.67637 z m 0,40.25587 c -14.952,0 -28.9342,-2.91741 -41.91261,-8.76604 -12.9783,-5.82621 -24.3546,-13.81635 -34.1332,-23.898 -9.7829,-10.10748 -17.4981,-21.87208 -23.1457,-35.28641 -5.6519,-13.41478 -8.4714,-27.84653 -8.4714,-43.32709 0,-15.45757 2.8195,-29.88979 8.4714,-43.30411 5.6476,-13.42668 13.3628,-25.16543 23.1457,-35.28158 9.7786,-10.08654 21.1549,-18.06674 34.1332,-23.903 12.97841,-5.84863 26.96061,-8.77999 41.91261,-8.77999 14.9947,0 28.9385,2.93136 41.9425,8.77999 12.9954,5.83626 24.376,13.81646 34.1376,23.903 9.7829,10.11615 17.4938,21.8549 23.1414,35.28158 5.6647,13.41432 8.4756,27.84654 8.4756,43.30411 0,15.48056 -2.8109,29.91231 -8.4756,43.32709 -5.6476,13.41433 -13.3585,25.17893 -23.1414,35.28641 -9.7616,10.08165 -21.1422,18.07179 -34.1376,23.898 -13.004,5.84863 -26.9478,8.76604 -41.9425,8.76604"
     style="fill:#0a81c5;fill-opacity:1;fill-rule:nonzero;stroke:none"
     id="path30" />
  <path
     inkscape:connector-curvature="0"
     d="m 1384.4147,470.14605 c 3.063,3.15559 4.4215,6.62461 4.131,10.41276 -0.295,3.79164 -1.6832,6.94702 -4.131,9.46784 -9.753,10.11614 -21.2191,18.79943 -34.3555,26.05156 -13.1449,7.25215 -30.0919,10.88514 -50.8795,10.88514 -14.9648,0 -28.8616,-2.7674 -41.6947,-8.29359 -12.816,-5.50893 -23.9061,-13.2508 -33.2191,-23.19105 -9.313,-9.94543 -16.6651,-21.92548 -22.0051,-35.97984 -5.3229,-14.0526 -8.0271,-29.44484 -8.0271,-46.17017 l 0,-104.16646 c 0,-16.40971 2.7042,-31.6519 8.0271,-45.70451 5.34,-14.03183 12.6921,-26.01865 22.0051,-35.96398 9.313,-9.95237 20.4031,-17.75995 33.2191,-23.44484 12.8331,-5.68972 26.7299,-8.53149 41.6947,-8.53149 10.0947,0 19.2625,1.03995 27.516,3.08324 8.2406,2.05166 15.7124,4.6586 22.428,7.81419 6.7369,3.15517 12.6152,6.70365 17.6519,10.64717 5.0537,3.95719 9.236,7.66411 12.6109,11.13491 6.408,6.62461 6.408,13.251 0,19.88046 l -10.539,10.89743 c -3.0673,3.15517 -5.9552,4.81927 -8.7192,4.96052 -2.7426,0.16067 -5.9594,-1.4915 -9.6248,-4.96052 -3.9943,-3.79344 -9.9879,-8.2075 -18.0876,-13.25585 -8.0827,-5.05544 -19.177,-7.57806 -33.2362,-7.57806 -9.7615,0 -18.3995,1.82743 -25.8755,5.44872 -7.5144,3.63454 -13.9139,8.69524 -19.2667,15.14375 -5.3272,6.47985 -9.3685,14.05613 -12.1453,22.72535 -2.7256,8.68156 -4.1225,17.92372 -4.1225,27.70351 l 0,104.16646 c 0,21.14822 5.4468,38.2783 16.2678,51.38275 10.8423,13.10047 25.9139,19.639 45.1422,19.639 13.4739,0 24.8118,-2.59677 34.1376,-7.81242 9.3257,-5.20065 16.8744,-10.4834 22.6928,-15.86148 2.7341,-2.51732 5.8826,-3.94483 9.407,-4.25869 3.4774,-0.30193 6.7882,1.11192 9.8298,4.25869 l 9.1678,9.4695"
     style="fill:#0a81c5;fill-opacity:1;fill-rule:nonzero;stroke:none"
     id="path32" />
  <path
     inkscape:connector-curvature="0"
     d="m 1560.8611,354.14415 c 0,-3.15517 -1.5337,-4.73276 -4.601,-4.73276 l -34.3511,0 c -15.3023,0 -27.1358,4.89697 -35.5217,14.67675 -8.4244,9.77269 -12.5981,21.45805 -12.5981,35.02422 l 0,46.88567 c 0,12.00935 3.4304,21.7825 10.3126,29.36056 6.8565,7.56594 16.4045,11.34889 28.6352,11.34889 8.2279,0 15.3408,-1.49318 21.313,-4.48457 5.9466,-2.99362 10.915,-7.02807 14.8751,-12.07686 3.9687,-5.03645 6.942,-10.64718 8.9456,-16.8061 1.9608,-6.16425 2.9904,-12.54387 2.9904,-19.17025 l 0,-80.02555 z m 13.7259,168.09651 c -4.272,0 -7.6383,-1.42595 -10.0691,-4.28128 -2.4692,-2.82948 -3.6568,-5.96417 -3.6568,-9.45573 0,-1.89324 -0.7049,-3.08469 -2.089,-3.55713 -1.3585,-0.4776 -2.67,0.0879 -3.8747,1.66389 -4.2934,5.99867 -10.6245,10.88513 -19.0275,14.67674 -8.3988,3.77438 -18.5704,5.6762 -30.4594,5.6762 -10.6971,0 -20.4885,-2.06217 -29.3443,-6.14864 -8.8559,-4.10027 -16.49,-9.9454 -22.9108,-17.51485 -6.408,-7.56597 -11.466,-16.65442 -15.1229,-27.23944 -3.6782,-10.57167 -5.5023,-22.15988 -5.5023,-34.78674 l 0,-42.16132 c 0,-12.29891 2.1317,-23.9754 6.4379,-35.02422 4.2635,-11.04751 10.3041,-20.59953 18.0706,-28.65518 7.7964,-8.04023 17.0495,-14.43355 27.7295,-19.16497 10.7099,-4.73851 22.4707,-7.10575 35.2953,-7.10575 l 68.2922,0 c 4.2506,0 7.617,1.25536 10.0477,3.77268 2.4821,2.54338 3.6739,6.00047 3.6739,10.43177 l 0,184.65586 c 0,4.43133 -1.1918,7.90566 -3.6739,10.41273 -2.4307,2.54324 -5.7971,3.80538 -10.0477,3.80538 l -13.7687,0"
     style="fill:#0a81c5;fill-opacity:1;fill-rule:nonzero;stroke:none"
     id="path34" />
  <path
     inkscape:connector-curvature="0"
     d="m 1670.8096,522.24066 c -4.2507,0 -7.6213,-1.26214 -10.0563,-3.80538 -2.4778,-2.50707 -3.6868,-5.9814 -3.6868,-10.41273 l 0,-120.73503 c 0,-23.03387 6.4166,-41.82494 19.2497,-56.34278 12.8288,-14.52667 30.7114,-21.7825 53.6221,-21.7825 l 16.4899,0 c 4.2849,0 7.617,1.25536 10.099,3.77268 2.4265,2.54338 3.6654,6.00047 3.6654,10.43177 l 0,11.82833 c 0,4.43129 -1.2389,7.90029 -3.6654,10.42294 -2.482,2.53808 -5.8141,3.79343 -10.099,3.79343 l -13.7302,0 c -11.6241,0 -20.245,3.70693 -25.9054,11.12121 -5.6476,7.42621 -8.4884,17.13403 -8.4884,29.12262 l 0,118.36733 c 0,4.43133 -1.2133,7.90566 -3.6569,10.41273 -2.4307,2.54324 -5.7928,3.80538 -10.0648,3.80538 l -13.7729,0"
     style="fill:#0a81c5;fill-opacity:1;fill-rule:nonzero;stroke:none"
     id="path36" />
  <path
     inkscape:connector-curvature="0"
     d="m 698.13491,522.24066 c -4.27201,0 -7.63407,-1.26214 -10.06057,-3.80538 -2.45212,-2.50707 -3.6611,-5.9814 -3.6611,-10.41273 l 0,-184.65586 c 0,-4.4313 1.20898,-7.88839 3.6611,-10.43177 2.4265,-2.51732 5.78856,-3.77268 10.06057,-3.77268 l 13.75156,0 c 4.28909,0 7.62552,1.25536 10.09474,3.77268 2.4265,2.54338 3.64829,6.00047 3.64829,10.43177 l 0,184.65586 c 0,4.43133 -1.22179,7.90566 -3.64829,10.41273 -2.46922,2.54324 -5.80565,3.80538 -10.09474,3.80538 l -13.75156,0 z m 0,-246.22182 c -4.27201,0 -7.63407,-1.24124 -10.06057,-3.79302 -2.45212,-2.51778 -3.6611,-6.00047 -3.6611,-10.411 l 0,-23.67391 c 0,-4.40921 1.20898,-7.87997 3.6611,-10.41805 2.4265,-2.51736 5.78856,-3.78462 10.06057,-3.78462 l 13.75156,0 c 4.28909,0 7.62552,1.26726 10.09474,3.78462 2.4265,2.53808 3.64829,6.00884 3.64829,10.41805 l 0,23.67391 c 0,4.41053 -1.22179,7.89322 -3.64829,10.411 -2.46922,2.55178 -5.80565,3.79302 -10.09474,3.79302 l -13.75156,0"
     style="fill:#0fad79;fill-opacity:1;fill-rule:nonzero;stroke:none"
     id="path38" />
  <path
     inkscape:connector-curvature="0"
     d="m 676.31353,522.24066 c -4.26773,0 -7.61698,-1.26214 -10.06484,-3.80538 -2.46067,-2.50707 -3.66537,-5.9814 -3.66537,-10.41273 l 0,-184.65586 c 0,-4.4313 1.2047,-7.88839 3.66537,-10.43177 2.44786,-2.51732 5.79711,-3.77268 10.06484,-3.77268 l 13.75157,0 c 4.28908,0 7.63406,1.25536 10.08192,3.77268 2.43077,2.54338 3.66537,6.00047 3.66537,10.43177 l 0,184.65586 c 0,4.43133 -1.2346,7.90566 -3.66537,10.41273 -2.44786,2.54324 -5.79284,3.80538 -10.08192,3.80538 l -13.75157,0 z m 0,-246.22182 c -4.26773,0 -7.61698,-1.24124 -10.06484,-3.79302 -2.46067,-2.51778 -3.66537,-6.00047 -3.66537,-10.411 l 0,-23.67391 c 0,-4.40921 1.2047,-7.87997 3.66537,-10.41805 2.44786,-2.51736 5.79711,-3.78462 10.06484,-3.78462 l 13.75157,0 c 4.28908,0 7.63406,1.26726 10.08192,3.78462 2.43077,2.53808 3.66537,6.00884 3.66537,10.41805 l 0,23.67391 c 0,4.41053 -1.2346,7.89322 -3.66537,10.411 -2.44786,2.55178 -5.79284,3.79302 -10.08192,3.79302 l -13.75157,0"
     style="fill:#5cc134;fill-opacity:1;fill-rule:nonzero;stroke:none"
     id="path40" />
</svg>
