<?xml version="1.0" encoding="UTF-8" standalone="no"?>
<!-- Created with Inkscape (http://www.inkscape.org/) -->

<svg
   xmlns:dc="http://purl.org/dc/elements/1.1/"
   xmlns:cc="http://creativecommons.org/ns#"
   xmlns:rdf="http://www.w3.org/1999/02/22-rdf-syntax-ns#"
   xmlns:svg="http://www.w3.org/2000/svg"
   xmlns="http://www.w3.org/2000/svg"
   xmlns:sodipodi="http://sodipodi.sourceforge.net/DTD/sodipodi-0.dtd"
   xmlns:inkscape="http://www.inkscape.org/namespaces/inkscape"
   id="svg2"
   version="1.1"
   inkscape:version="0.48.4 r9939"
   width="509.275"
   height="143.55"
   xml:space="preserve"
   sodipodi:docname="envirocar_logo-01.eps"><metadata
     id="metadata8"><rdf:RDF><cc:Work
         rdf:about=""><dc:format>image/svg+xml</dc:format><dc:type
           rdf:resource="http://purl.org/dc/dcmitype/StillImage" /><dc:title></dc:title></cc:Work></rdf:RDF></metadata><defs
     id="defs6" /><sodipodi:namedview
     pagecolor="#ffffff"
     bordercolor="#666666"
     borderopacity="1"
     objecttolerance="10"
     gridtolerance="10"
     guidetolerance="10"
     inkscape:pageopacity="0"
     inkscape:pageshadow="2"
     inkscape:window-width="640"
     inkscape:window-height="480"
     id="namedview4"
     showgrid="false"
     inkscape:zoom="0.68332434"
     inkscape:cx="254.6375"
     inkscape:cy="71.775002"
     inkscape:window-x="0"
     inkscape:window-y="0"
     inkscape:window-maximized="0"
     inkscape:current-layer="g10" /><g
     id="g10"
     inkscape:groupmode="layer"
     inkscape:label="ink_ext_XXXXXX"
     transform="matrix(1.25,0,0,-1.25,0,143.55)"><g
       id="g12"
       transform="scale(0.1,0.1)"><path
         d="m 1336.94,619.754 c -3.65,7.996 -4.61,17.234 -2.02,26.277 15.59,55.129 45.03,105.52 84.89,145.91 14.77,14.911 38.89,15.047 53.73,0.321 14.87,-14.727 15.2,-38.789 0.38,-53.809 -31,-31.219 -53.71,-70.39 -65.89,-113.191 -5.73,-20.176 -26.79,-31.895 -46.95,-26.153 -11.13,3.211 -19.65,10.957 -24.14,20.645"
         style="fill:#0a81c5;fill-opacity:1;fill-rule:nonzero;stroke:none"
         id="path14" /><path
         d="m 1154.04,621.863 c -3.07,6.629 -4.23,14.246 -3.02,21.992 21.52,131.844 91.59,248.766 197.32,329.344 16.68,12.735 40.53,9.485 53.27,-7.176 12.39,-16.261 9.53,-40.617 -7.17,-53.332 -90.18,-68.718 -150.03,-168.554 -168.34,-281.054 -3.43,-20.762 -22.91,-34.785 -43.62,-31.446 -12.97,2.168 -23.31,10.567 -28.44,21.672"
         style="fill:#40bb6a;fill-opacity:1;fill-rule:nonzero;stroke:none"
         id="path16" /><path
         d="m 963.438,620.465 c -2.864,6.211 -4.102,13.273 -3.172,20.566 25.574,204.922 138.704,387.519 310.444,501.059 17.5,11.54 41.06,6.8 52.57,-10.73 11.48,-17.59 6.83,-41.13 -10.76,-52.64 -153.08,-101.251 -254,-264.232 -276.86,-447.025 -2.54,-20.859 -21.57,-35.632 -42.359,-32.988 -13.496,1.613 -24.539,10.234 -29.863,21.758"
         style="fill:#5cc134;fill-opacity:1;fill-rule:nonzero;stroke:none"
         id="path18" /><path
         d="m 284.23,314.273 c 0,27.207 -7.46,50.45 -22.558,69.727 -14.961,19.316 -39.621,28.977 -73.957,28.977 -33.621,0 -57.207,-9.661 -70.774,-28.977 -13.628,-19.277 -20.4371,-42.52 -20.4371,-69.727 l 0,-5.332 c 0,-7.156 3.5621,-10.75 10.7621,-10.75 l 166.23,0 c 7.129,0 10.734,3.594 10.734,10.75 l 0,5.332 z M 359.355,115.84 c 6.387,-6.418 9.485,-13.578 9.075,-21.4611 C 368.086,86.5195 365.02,79 359.355,71.8203 344.988,53.9688 323.953,37.5391 296.063,22.5313 268.184,7.5 234.883,0 196.277,0 166.262,0 139.297,4.80078 115.332,14.5 91.3203,24.1211 70.7734,37.5391 53.6016,54.6797 36.4648,71.8203 23.2539,91.8789 13.9844,114.781 4.63672,137.648 0,161.969 0,187.711 l 0,126.562 c 0,25.743 4.09375,50.235 12.3047,73.497 8.2734,23.242 20.4375,43.418 36.4922,60.585 16.0273,17.149 35.7617,30.762 58.9841,40.801 23.215,10 49.895,15.02 79.934,15.02 30.027,0 56.797,-5.02 80.469,-15.02 23.586,-10.039 43.808,-23.652 60.578,-40.801 16.836,-17.167 29.695,-37.343 38.609,-60.585 8.945,-23.262 13.422,-47.754 13.422,-73.497 l 0,-64.335 c 0,-10.008 -2.863,-17.903 -8.574,-23.602 -5.781,-5.715 -13.586,-8.574 -23.633,-8.574 l -241.32,0 c -7.2,0 -10.7621,-3.574 -10.7621,-10.754 l 0,-19.297 c 0,-27.207 8.0661,-50.063 24.1801,-68.641 16.086,-18.609 41.269,-27.8708 75.593,-27.8708 27.18,0 48.235,4.8203 63.325,14.4218 14.961,9.699 26.414,18.809 34.312,27.379 7.895,7.891 15.734,11.641 23.606,11.238 7.812,-0.34 14.98,-3.718 21.445,-10.16 l 20.39,-18.238"
         style="fill:#0a81c5;fill-opacity:1;fill-rule:nonzero;stroke:none"
         id="path20" /><path
         d="m 831.289,10.6992 c -10.019,0 -17.898,2.8594 -23.586,8.6211 -5.738,5.6797 -8.57,13.5508 -8.57,23.5899 l 0,268.1598 c 0,27.16 -8.449,50.957 -25.254,71.34 -16.75,20.399 -42.375,30.567 -76.672,30.567 -34.336,0 -59.902,-10.168 -76.648,-30.567 -16.887,-20.383 -25.246,-44.18 -25.246,-71.34 l 0,-268.1598 c 0,-10.0391 -2.879,-17.9102 -8.583,-23.5899 -5.722,-5.7617 -13.566,-8.6211 -23.617,-8.6211 l -32.144,0 c -10.039,0 -17.871,2.8594 -23.625,8.6211 -5.735,5.6797 -8.606,13.5508 -8.606,23.5899 l 0,268.1598 c 0,25.715 4.875,50.422 14.504,74.004 9.61,23.614 23.074,44.18 40.254,61.719 17.129,17.48 37.883,31.445 62.129,41.824 24.363,10.317 51.543,15.559 81.582,15.559 30.051,0 57.234,-5.242 81.555,-15.559 24.273,-10.379 45.039,-24.344 62.176,-41.824 17.136,-17.539 30.625,-38.105 40.261,-61.719 9.621,-23.582 14.453,-48.289 14.453,-74.004 l 0,-268.1598 c 0,-10.0391 -2.839,-17.9102 -8.55,-23.5899 -5.774,-5.7617 -13.657,-8.6211 -23.645,-8.6211 l -32.168,0"
         style="fill:#0a81c5;fill-opacity:1;fill-rule:nonzero;stroke:none"
         id="path22" /><path
         d="m 1169.15,10.6992 c -9.97,0 -18.07,1.7891 -24.13,5.3906 -6.08,3.5508 -10.91,11.4102 -14.46,23.6016 L 983.613,463.375 c -3.613,9.297 -3.215,16.621 1.094,22.012 4.27,5.363 11.348,8.039 21.423,8.039 l 39.71,0 c 19.25,0 31.43,-8.547 36.42,-25.774 l 101.97,-318.554 c 2.09,-7.887 5.67,-11.809 10.67,-11.809 5,0 8.56,3.922 10.76,11.809 l 101.86,318.554 c 5,17.227 17.17,25.774 36.5,25.774 l 39.65,0 c 10.03,0 17.17,-2.676 21.5,-8.039 4.26,-5.391 4.62,-12.715 1.02,-22.012 L 1259.25,39.6914 c -3.59,-12.1914 -8.41,-20.0508 -14.48,-23.6016 -6.1,-3.6015 -14.11,-5.3906 -24.14,-5.3906 l -51.48,0"
         style="fill:#0a81c5;fill-opacity:1;fill-rule:nonzero;stroke:none"
         id="path24" /><path
         d="m 1639.24,10.6992 c -10.02,0 -17.86,2.8594 -23.58,8.6211 -5.74,5.6797 -8.58,13.5508 -8.58,23.5899 l 0,418.3358 c 0,10.039 2.84,17.871 8.58,23.633 5.72,5.703 13.56,8.547 23.58,8.547 l 32.18,0 c 10.03,0 17.85,-2.844 23.6,-8.547 5.66,-5.762 8.58,-13.594 8.58,-23.633 l 0,-418.3358 c 0,-10.0391 -2.92,-17.9102 -8.58,-23.5899 -5.75,-5.7617 -13.57,-8.6211 -23.6,-8.6211 l -32.18,0 z m 0,557.8128 c -10.02,0 -17.86,2.812 -23.58,8.593 -5.74,5.704 -8.58,13.594 -8.58,23.586 l 0,53.633 c 0,9.989 2.84,17.852 8.58,23.602 5.72,5.703 13.56,8.574 23.58,8.574 l 32.18,0 c 10.03,0 17.85,-2.871 23.6,-8.574 5.66,-5.75 8.58,-13.613 8.58,-23.602 l 0,-53.633 c 0,-9.992 -2.92,-17.882 -8.58,-23.586 -5.75,-5.781 -13.57,-8.593 -23.6,-8.593 l -32.18,0"
         style="fill:#0a81c5;fill-opacity:1;fill-rule:nonzero;stroke:none"
         id="path26" /><path
         d="m 1875.24,10.6992 c -10.03,0 -17.94,2.8594 -23.6,8.6211 -5.75,5.6797 -8.57,13.5508 -8.57,23.5899 l 0,273.5238 c 0,52.183 15.01,94.754 45.06,127.644 30,32.91 71.87,49.348 125.45,49.348 l 38.66,0 c 10.02,0 17.85,-2.844 23.58,-8.547 5.68,-5.762 8.56,-13.594 8.56,-23.633 l 0,-26.797 c 0,-10.039 -2.88,-17.898 -8.56,-23.613 -5.73,-5.75 -13.56,-8.594 -23.58,-8.594 l -32.19,0 c -27.18,0 -47.39,-8.398 -60.59,-25.195 -13.22,-16.824 -19.86,-38.817 -19.86,-65.977 l 0,-268.1598 c 0,-10.0391 -2.85,-17.9102 -8.59,-23.5899 -5.72,-5.7617 -13.61,-8.6211 -23.58,-8.6211 l -32.19,0"
         style="fill:#0a81c5;fill-opacity:1;fill-rule:nonzero;stroke:none"
         id="path28" /><path
         d="m 2390.07,91.1992 c 22.2,0 42.76,4.2813 61.72,12.8598 18.96,8.562 35.37,20 49.32,34.312 13.99,14.274 24.84,31.293 32.74,50.934 7.87,19.695 11.78,40.605 11.78,62.793 0,22.136 -3.91,43.054 -11.78,62.722 -7.9,19.688 -18.75,36.633 -32.74,50.957 -13.95,14.309 -30.36,25.743 -49.32,34.317 -18.96,8.594 -39.52,12.883 -61.72,12.883 -22.13,0 -42.65,-4.289 -61.64,-12.883 -18.94,-8.574 -35.42,-20.008 -49.34,-34.317 -13.88,-14.324 -24.86,-31.269 -32.69,-50.957 -7.9,-19.668 -11.84,-40.586 -11.84,-62.722 0,-22.188 3.94,-43.098 11.84,-62.793 7.83,-19.641 18.81,-36.66 32.69,-50.934 13.92,-14.312 30.4,-25.75 49.34,-34.312 18.99,-8.5785 39.51,-12.8598 61.64,-12.8598 z M 2390.07,0 c -35,0 -67.73,6.60938 -98.11,19.8594 -30.38,13.1992 -57.01,31.3008 -79.9,54.1406 -22.9,22.8984 -40.96,49.551 -54.18,79.941 -13.23,30.391 -19.83,63.086 -19.83,98.157 0,35.019 6.6,67.715 19.83,98.105 13.22,30.418 31.28,57.012 54.18,79.93 22.89,22.851 49.52,40.93 79.9,54.152 30.38,13.25 63.11,19.891 98.11,19.891 35.1,0 67.74,-6.641 98.18,-19.891 30.42,-13.222 57.06,-31.301 79.91,-54.152 22.9,-22.918 40.95,-49.512 54.17,-79.93 13.26,-30.39 19.84,-63.086 19.84,-98.105 0,-35.071 -6.58,-67.766 -19.84,-98.157 C 2609.11,123.551 2591.06,96.8984 2568.16,74 2545.31,51.1602 2518.67,33.0586 2488.25,19.8594 2457.81,6.60938 2425.17,0 2390.07,0"
         style="fill:#0a81c5;fill-opacity:1;fill-rule:nonzero;stroke:none"
         id="path30" /><path
         d="m 3194.6,128.719 c 7.17,-7.149 10.35,-15.008 9.67,-23.59 -0.69,-8.5899 -3.94,-15.7384 -9.67,-21.4493 -22.83,-22.918 -49.67,-42.5899 -80.42,-59.0195 C 3083.41,8.23047 3043.74,0 2995.08,0 c -35.03,0 -67.56,6.26953 -97.6,18.7891 -30,12.4804 -55.96,30.0195 -77.76,52.539 -21.8,22.5313 -39.01,49.6719 -51.51,81.5119 -12.46,31.836 -18.79,66.707 -18.79,104.598 l 0,235.988 c 0,37.176 6.33,71.707 18.79,103.543 12.5,31.789 29.71,58.945 51.51,81.476 21.8,22.547 47.76,40.235 77.76,53.114 30.04,12.89 62.57,19.328 97.6,19.328 23.63,0 45.09,-2.356 64.41,-6.985 19.29,-4.648 36.78,-10.554 52.5,-17.703 15.77,-7.148 29.53,-15.187 41.32,-24.121 11.83,-8.965 21.62,-17.363 29.52,-25.226 15,-15.008 15,-30.02 0,-45.039 l -24.67,-24.688 c -7.18,-7.148 -13.94,-10.918 -20.41,-11.238 -6.42,-0.364 -13.95,3.379 -22.53,11.238 -9.35,8.594 -23.38,18.594 -42.34,30.031 -18.92,11.453 -44.89,17.168 -77.8,17.168 -22.85,0 -43.07,-4.14 -60.57,-12.344 -17.59,-8.234 -32.57,-19.699 -45.1,-34.308 -12.47,-14.68 -21.93,-31.844 -28.43,-51.484 -6.38,-19.668 -9.65,-40.606 -9.65,-62.762 l 0,-235.988 c 0,-47.911 12.75,-86.719 38.08,-116.407 25.38,-29.679 60.66,-44.4919 105.67,-44.4919 31.54,0 58.08,5.8829 79.91,17.6989 21.83,11.782 39.5,23.75 53.12,35.934 6.4,5.703 13.77,8.937 22.02,9.648 8.14,0.684 15.89,-2.519 23.01,-9.648 l 21.46,-21.453"
         style="fill:#0a81c5;fill-opacity:1;fill-rule:nonzero;stroke:none"
         id="path32" /><path
         d="m 3607.63,391.52 c 0,7.148 -3.59,10.722 -10.77,10.722 l -80.41,0 c -35.82,0 -63.52,-11.094 -83.15,-33.25 -19.72,-22.14 -29.49,-48.613 -29.49,-79.347 l 0,-106.219 c 0,-27.207 8.03,-49.348 24.14,-66.516 16.05,-17.1405 38.4,-25.7108 67.03,-25.7108 19.26,0 35.91,3.3828 49.89,10.1598 13.92,6.782 25.55,15.922 34.82,27.36 9.29,11.41 16.25,24.121 20.94,38.074 4.59,13.965 7,28.418 7,43.43 l 0,181.297 z m 32.13,-380.8208 c -10,0 -17.88,3.2305 -23.57,9.6992 -5.78,6.4102 -8.56,13.5118 -8.56,21.4219 0,4.2891 -1.65,6.9883 -4.89,8.0586 -3.18,1.082 -6.25,-0.1992 -9.07,-3.7695 -10.05,-13.5899 -24.87,-24.6602 -44.54,-33.25 C 3529.47,4.30859 3505.66,0 3477.83,0 c -25.04,0 -47.96,4.67188 -68.69,13.9297 -20.73,9.2891 -38.6,22.5312 -53.63,39.6797 -15,17.1406 -26.84,37.7304 -35.4,61.7106 -8.61,23.95 -12.88,50.203 -12.88,78.809 l 0,95.516 c 0,27.863 4.99,54.316 15.07,79.347 9.98,25.028 24.12,46.668 42.3,64.918 18.25,18.215 39.91,32.699 64.91,43.418 25.07,10.735 52.6,16.098 82.62,16.098 l 159.86,0 c 9.95,0 17.83,-2.844 23.52,-8.547 5.81,-5.762 8.6,-13.594 8.6,-23.633 l 0,-418.3358 c 0,-10.0391 -2.79,-17.9102 -8.6,-23.5899 -5.69,-5.7617 -13.57,-8.6211 -23.52,-8.6211 l -32.23,0"
         style="fill:#0a81c5;fill-opacity:1;fill-rule:nonzero;stroke:none"
         id="path34" /><path
         d="m 3865,10.6992 c -9.95,0 -17.84,2.8594 -23.54,8.6211 -5.8,5.6797 -8.63,13.5508 -8.63,23.5899 l 0,273.5238 c 0,52.183 15.02,94.754 45.06,127.644 30.03,32.91 71.89,49.348 125.52,49.348 l 38.6,0 c 10.03,0 17.83,-2.844 23.64,-8.547 5.68,-5.762 8.58,-13.594 8.58,-23.633 l 0,-26.797 c 0,-10.039 -2.9,-17.898 -8.58,-23.613 -5.81,-5.75 -13.61,-8.594 -23.64,-8.594 l -32.14,0 c -27.21,0 -47.39,-8.398 -60.64,-25.195 -13.22,-16.824 -19.87,-38.817 -19.87,-65.977 l 0,-268.1598 c 0,-10.0391 -2.84,-17.9102 -8.56,-23.5899 -5.69,-5.7617 -13.56,-8.6211 -23.56,-8.6211 l -32.24,0"
         style="fill:#0a81c5;fill-opacity:1;fill-rule:nonzero;stroke:none"
         id="path36" /><path
         d="m 1588.14,10.6992 c -10,0 -17.87,2.8594 -23.55,8.6211 -5.74,5.6797 -8.57,13.5508 -8.57,23.5899 l 0,418.3358 c 0,10.039 2.83,17.871 8.57,23.633 5.68,5.703 13.55,8.547 23.55,8.547 l 32.19,0 c 10.04,0 17.85,-2.844 23.63,-8.547 5.68,-5.762 8.54,-13.594 8.54,-23.633 l 0,-418.3358 c 0,-10.0391 -2.86,-17.9102 -8.54,-23.5899 -5.78,-5.7617 -13.59,-8.6211 -23.63,-8.6211 l -32.19,0 z m 0,557.8128 c -10,0 -17.87,2.812 -23.55,8.593 -5.74,5.704 -8.57,13.594 -8.57,23.586 l 0,53.633 c 0,9.989 2.83,17.852 8.57,23.602 5.68,5.703 13.55,8.574 23.55,8.574 l 32.19,0 c 10.04,0 17.85,-2.871 23.63,-8.574 5.68,-5.75 8.54,-13.613 8.54,-23.602 l 0,-53.633 c 0,-9.992 -2.86,-17.882 -8.54,-23.586 -5.78,-5.781 -13.59,-8.593 -23.63,-8.593 l -32.19,0"
         style="fill:#0fad79;fill-opacity:1;fill-rule:nonzero;stroke:none"
         id="path38" /><path
         d="m 1537.06,10.6992 c -9.99,0 -17.83,2.8594 -23.56,8.6211 -5.76,5.6797 -8.58,13.5508 -8.58,23.5899 l 0,418.3358 c 0,10.039 2.82,17.871 8.58,23.633 5.73,5.703 13.57,8.547 23.56,8.547 l 32.19,0 c 10.04,0 17.87,-2.844 23.6,-8.547 5.69,-5.762 8.58,-13.594 8.58,-23.633 l 0,-418.3358 c 0,-10.0391 -2.89,-17.9102 -8.58,-23.5899 -5.73,-5.7617 -13.56,-8.6211 -23.6,-8.6211 l -32.19,0 z m 0,557.8128 c -9.99,0 -17.83,2.812 -23.56,8.593 -5.76,5.704 -8.58,13.594 -8.58,23.586 l 0,53.633 c 0,9.989 2.82,17.852 8.58,23.602 5.73,5.703 13.57,8.574 23.56,8.574 l 32.19,0 c 10.04,0 17.87,-2.871 23.6,-8.574 5.69,-5.75 8.58,-13.613 8.58,-23.602 l 0,-53.633 c 0,-9.992 -2.89,-17.882 -8.58,-23.586 -5.73,-5.781 -13.56,-8.593 -23.6,-8.593 l -32.19,0"
         style="fill:#5cc134;fill-opacity:1;fill-rule:nonzero;stroke:none"
         id="path40" /></g></g></svg>