<?xml version="1.0" encoding="UTF-8" standalone="no"?>
<!-- Created with Inkscape (http://www.inkscape.org/) -->

<svg
   xmlns:dc="http://purl.org/dc/elements/1.1/"
   xmlns:cc="http://creativecommons.org/ns#"
   xmlns:rdf="http://www.w3.org/1999/02/22-rdf-syntax-ns#"
   xmlns:svg="http://www.w3.org/2000/svg"
   xmlns="http://www.w3.org/2000/svg"
   xmlns:sodipodi="http://sodipodi.sourceforge.net/DTD/sodipodi-0.dtd"
   xmlns:inkscape="http://www.inkscape.org/namespaces/inkscape"
   id="svg2"
   version="1.1"
   inkscape:version="0.48.4 r9939"
   width="470"
   height="370"
   xml:space="preserve"
   sodipodi:docname="final_enviroCar_Icon.svg"
   inkscape:export-filename="C:\Users\Schlomm\Desktop\shirts\enviroCar_Icon.png"
   inkscape:export-xdpi="90"
   inkscape:export-ydpi="90"><metadata
     id="metadata8"><rdf:RDF><cc:Work
         rdf:about=""><dc:format>image/svg+xml</dc:format><dc:type
           rdf:resource="http://purl.org/dc/dcmitype/StillImage" /><dc:title></dc:title></cc:Work></rdf:RDF></metadata><defs
     id="defs6"><clipPath
       clipPathUnits="userSpaceOnUse"
       id="clipPath18"><path
         d="m 0,0 1015,0 0,791.523 -1015,0 L 0,0 z"
         id="path20"
         inkscape:connector-curvature="0" /></clipPath></defs><sodipodi:namedview
     pagecolor="#ffffff"
     bordercolor="#666666"
     borderopacity="1"
     objecttolerance="10"
     gridtolerance="10"
     guidetolerance="10"
     inkscape:pageopacity="0"
     inkscape:pageshadow="2"
     inkscape:window-width="1112"
     inkscape:window-height="802"
     id="namedview4"
     showgrid="false"
     inkscape:zoom="1.1926721"
     inkscape:cx="121.64413"
     inkscape:cy="131.38717"
     inkscape:window-x="2147"
     inkscape:window-y="260"
     inkscape:window-maximized="0"
     inkscape:current-layer="g10"
     fit-margin-top="0"
     fit-margin-left="0"
     fit-margin-right="0"
     fit-margin-bottom="0"
     units="px" /><g
     id="g10"
     inkscape:groupmode="layer"
     inkscape:label="ink_ext_XXXXXX"
     transform="matrix(1.25,0,0,-1.25,0,369.99998)"><g
       id="g12"
       transform="matrix(0.36169659,0,0,0.35677295,4.8,4.8)"
       inkscape:export-filename="C:\Users\Schlomm\Google Drive\LCS -Marketing Team\images_logos_fonts_media\ifgi_52n-logo\final_enviroCar_Icon_groß.png"
       inkscape:export-xdpi="90"
       inkscape:export-ydpi="90"><g
         id="g14"><g
           id="g16"
           clip-path="url(#clipPath18)"><path
             d="m 514.57,69.9492 c -4.984,10.9102 -6.289,23.5156 -2.757,35.8598 21.273,75.265 61.464,144.043 115.878,199.171 20.157,20.34 53.079,20.536 73.34,0.43 20.285,-20.097 20.742,-52.949 0.508,-73.449 C 659.23,189.363 628.223,135.879 611.602,77.4688 603.789,49.9297 575.039,33.9336 547.523,41.7773 532.328,46.1406 520.691,56.7266 514.57,69.9492"
             style="fill:#0a81c5;fill-opacity:1;fill-rule:nonzero;stroke:none"
             id="path22"
             inkscape:connector-curvature="0" /><path
             d="m 264.918,72.832 c -4.199,9.043 -5.773,19.4336 -4.133,30.02 29.379,179.949 125.02,339.558 269.344,449.531 22.766,17.383 55.32,12.957 72.715,-9.785 16.918,-22.207 13.011,-55.45 -9.785,-72.805 C 469.957,376.004 388.27,239.727 363.281,86.1602 358.59,57.8203 332.008,38.6797 303.734,43.2422 286.031,46.1992 271.914,57.668 264.918,72.832"
             style="fill:#40bb6a;fill-opacity:1;fill-rule:nonzero;stroke:none"
             id="path24"
             inkscape:connector-curvature="0" /><path
             d="M 4.74609,70.918 C 0.839844,79.3945 -0.855469,89.043 0.414063,98.9844 35.3281,378.699 189.75,627.938 424.172,782.91 c 23.887,15.762 56.039,9.305 71.75,-14.629 15.664,-24.023 9.32,-56.152 -14.688,-71.855 C 272.289,558.223 134.527,335.754 103.336,86.2383 99.8516,57.7734 73.8867,37.6172 45.5078,41.2109 27.0859,43.4258 12.0117,55.1836 4.74609,70.918"
             style="fill:#5cc134;fill-opacity:1;fill-rule:nonzero;stroke:none"
             id="path26"
             inkscape:connector-curvature="0" /><path
             d="m 927.195,0 c -13.675,0 -24.379,3.83594 -32.175,11.7266 -7.836,7.7851 -11.719,18.5547 -11.719,32.207 l 0,73.2034 c 0,13.625 3.883,24.367 11.719,32.207 7.796,7.785 18.5,11.711 32.175,11.711 l 43.922,0 c 13.692,0 24.371,-3.926 32.223,-11.711 7.73,-7.84 11.71,-18.582 11.71,-32.207 l 0,-73.2034 c 0,-13.6523 -3.98,-24.4219 -11.71,-32.207 C 995.488,3.83594 984.809,0 971.117,0 l -43.922,0"
             style="fill:#0a81c5;fill-opacity:1;fill-rule:nonzero;stroke:none"
             id="path28"
             inkscape:connector-curvature="0" /><path
             d="m 857.457,0 c -13.648,0 -24.394,3.83594 -32.152,11.7266 -7.84,7.7851 -11.707,18.5547 -11.707,32.207 l 0,73.2034 c 0,13.625 3.867,24.367 11.707,32.207 7.758,7.785 18.504,11.711 32.152,11.711 l 43.934,0 c 13.703,0 24.367,-3.926 32.246,-11.711 7.758,-7.84 11.66,-18.582 11.66,-32.207 l 0,-73.2034 c 0,-13.6523 -3.902,-24.4219 -11.66,-32.207 C 925.758,3.83594 915.094,0 901.391,0 l -43.934,0"
             style="fill:#0fad79;fill-opacity:1;fill-rule:nonzero;stroke:none"
             id="path30"
             inkscape:connector-curvature="0" /><path
             d="m 787.73,0 c -13.636,0 -24.339,3.83594 -32.167,11.7266 -7.852,7.7851 -11.708,18.5547 -11.708,32.207 l 0,73.2034 c 0,13.625 3.856,24.367 11.708,32.207 7.828,7.785 18.531,11.711 32.167,11.711 l 43.934,0 c 13.703,0 24.391,-3.926 32.219,-11.711 7.758,-7.84 11.703,-18.582 11.703,-32.207 l 0,-73.2034 c 0,-13.6523 -3.945,-24.4219 -11.703,-32.207 C 856.055,3.83594 845.367,0 831.664,0 L 787.73,0"
             style="fill:#5cc134;fill-opacity:1;fill-rule:nonzero;stroke:none"
             id="path32"
             inkscape:connector-curvature="0" /></g></g></g></g></svg>